# xmcd
#
# Track frame offsets: 
#        150
#        26116
#        55706
#        78654
#        94205
#        120655
#        137365
#        149948
#        170983
#        190047
#        207343
#        218277
#        239000
#        254538
#        268594
#
# Disc length: 3929 seconds
#
# Revision: 0
# Processed by: cddbd v1.5.2PL0 Copyright (c) Steve Scherf et al.
# Submitted via: ExactAudioCopyFreeDBPlugin 1.0
#
DISCID=e60f570f
DTITLE=Railyard Reunion - Derailed
DYEAR=2013
DGENRE=Bluegrass
TTITLE0=Wabash Cannonball
TTITLE1=Banks of the Ohio
TTITLE2=Barefoot Dancing Angel
TTITLE3=Cactus Jump
TTITLE4=Cracks in the Wall
TTITLE5=Poor Boy's Delight
TTITLE6=Railyard Two-Step
TTITLE7=Dial Wine One-One
TTITLE8=Glendale Train
TTITLE9=Tequila Sally
TTITLE10=Pretty Little Girl From Galax
TTITLE11=Down in Santa Fe
TTITLE12=Long Road Home
TTITLE13=I'm Just Here To Get My Baby Out of Jail
TTITLE14=Don't Bother Comin' Home
EXTD=
EXTT0=
EXTT1=
EXTT2=
EXTT3=
EXTT4=
EXTT5=
EXTT6=
EXTT7=
EXTT8=
EXTT9=
EXTT10=
EXTT11=
EXTT12=
EXTT13=
EXTT14=
PLAYORDER=
